# xmcd
#
# Track frame offsets: 
#        150
#        17941
#        35071
#        51228
#        68400
#        84041
#        101853
#        120507
#        133987
#        152190
#        168382
#        180083
#        193536
#
# Disc length: 2856 seconds
#
# Revision: 0
# Processed by: cddbd v1.5.2PL0 Copyright (c) Steve Scherf et al.
# Submitted via: ExactAudioCopy v1.0b4
#
DISCID=a60b260d
DTITLE=Cash Box Kings - Holding Court
DYEAR=2015
DGENRE=Blues
TTITLE0=I Ain't Gonna Be No Monkey Man
TTITLE1=Download Blues
TTITLE2=Gotta Move Out To The Suburbs
TTITLE3=Cash Box Boogie
TTITLE4=Hobo Blues
TTITLE5=Baby Without You
TTITLE6=Juju
TTITLE7=Everybody's Fishin'
TTITLE8=Out On The Road
TTITLE9=Sugar Pea
TTITLE10=I Miss You Miss Anne
TTITLE11=I'm A Real Lover
TTITLE12=Quarter To Blue
EXTD=
EXTT0=
EXTT1=
EXTT2=
EXTT3=
EXTT4=
EXTT5=
EXTT6=
EXTT7=
EXTT8=
EXTT9=
EXTT10=
EXTT11=
EXTT12=
PLAYORDER=
